<svg xmlns="http://www.w3.org/2000/svg" xml:space="preserve" width="62.951mm" height="237.951511" viewBox="0 0 62.951 62.958004">
  <g transform="translate(-73.524497 -117.021)">
    <ellipse cx="105" cy="148.5" fill="#f9f9f9" rx="31.4755" ry="31.479"/>
    <path fill="#ea580c" d="M104.99612 117.02078c-15.271529.0269-28.320892 11.01115-30.95263 26.05423 4.007858.005 7.14295.48777 10.645345 1.23713l6.208927-15.0244c.58952-1.42571 2.23375-2.47135 3.58634-2.10892 4.56956 1.22441 8.900168 3.38975 13.310298 5.13147 1.75839-1.89159 4.22059-2.97204 6.8032-2.98535 5.16614.00027 9.35397 4.18833 9.35395 9.35447.00001 5.16613-4.18782 9.3542-9.35395 9.35447-5.14822-.003-9.32656-4.16496-9.3493-9.31313l-9.270748-3.64525-4.49688 10.88564c7.58731 2.33274 14.007388 6.37539 18.528578 11.42927 5.64906-.009 9.94005 3.90694 11.26392 8.51628 1.05687 3.67998.0972 7.92152-2.78381 11.00088 10.97376-5.20627 17.97323-16.26144 17.98598-28.40757.0001-17.38553-14.09369-31.47932-31.47922-31.47922zm-11.387939 44.90423c3.10516 0 5.622406 2.51725 5.622406 5.62241s-2.517246 5.6224-5.622406 5.6224c-3.105161 0-5.622389-2.51724-5.622389-5.6224 0-3.10516 2.517228-5.62241 5.622389-5.62241z"/>
  </g>
</svg>
